<?xml version="1.0" encoding="utf-8"?>
<!-- Generator: Adobe Illustrator 23.1.0, SVG Export Plug-In . SVG Version: 6.00 Build 0)  -->
<svg version="1.1" id="Layer_1" xmlns="http://www.w3.org/2000/svg" xmlns:xlink="http://www.w3.org/1999/xlink" x="0px" y="0px"
	 viewBox="0 0 227 64.7" style="enable-background:new 0 0 227 64.7;" xml:space="preserve">
<style type="text/css">
	.st0{fill:#4267B2;}
	.st1{fill:none;}
	.st2{fill:#72858B;}
	.st3{fill:#385898;}
	.st4{fill:#727272;}
</style>
<g>
	<path class="st0" d="M175,34.3c0-0.1,0-0.2,0-0.2c0-0.5,0.2-1,0.7-1.5c0.4-0.4,0.9-0.8,1.7-1c0.4-0.1,0.6-0.2,0.8-0.2v-1.1
		c2.4,0,3.9,1,4.5,2.9c0.1,0.4,0.2,0.8,0.2,1.1c0,0.6-0.2,1.1-0.6,1.5s-0.9,0.6-1.5,0.6h-5.9h-5.1l4.6-2.1
		C174.4,34.3,175,34.3,175,34.3z M169.4,36.5c-0.6,0-1.1-0.2-1.6-0.5c-0.4-0.3-0.7-0.8-0.9-1.4c-0.1-0.4-0.1-0.8-0.1-1.2
		c0-0.6,0.1-1.3,0.3-2c0.2-0.6,0.5-1.2,1-1.7h2.1c-0.8,0.8-1.3,1.8-1.3,2.9c0,0.7,0.2,1.2,0.6,1.6h2.5v-4h2.1v4L169.4,36.5z
		 M171.5,32.5l-1,1l-1-1l1-1L171.5,32.5z M178.1,34.3h2.8v-0.2v-0.2c0-0.6-0.1-1.1-0.4-1.5c0,0.4-0.2,0.7-0.6,1
		c-0.3,0.2-0.7,0.4-1.1,0.6L178.1,34.3z M176.5,33.9c0,0.3,0.2,0.4,0.4,0.4c0.2,0,0.4-0.1,0.8-0.3s0.6-0.5,0.6-0.8
		c0-0.2,0-0.3-0.2-0.4c-0.1-0.1-0.3-0.1-0.5-0.1c-0.3,0-0.6,0.1-0.8,0.4c-0.1,0.1-0.2,0.2-0.2,0.3C176.5,33.6,176.5,33.8,176.5,33.9
		z M185.8,34.3c0,0.6-0.2,1-0.6,1.5c-0.4,0.4-0.9,0.6-1.5,0.6v-6.3h2.1V34.3z M195.3,34.4c0,0.6-0.2,1-0.6,1.5
		c-0.2,0.2-0.4,0.4-0.7,0.4c-0.2,0.1-0.5,0.2-0.8,0.2h-2.5c-0.6,0-1.1-0.2-1.6-0.5s-0.7-0.8-0.9-1.4c-0.1-0.4-0.2-0.8-0.2-1.2
		c0-0.6,0.1-1.3,0.3-2c0.2-0.6,0.5-1.2,1-1.7h2.1c-0.8,0.8-1.3,1.8-1.3,2.9c0,0.7,0.2,1.2,0.6,1.6h2.5v-4h2.1L195.3,34.4L195.3,34.4
		z M192.8,32.5l-1,1l-1-1l1-1L192.8,32.5z M196,34.3v-5.1h2.1v5.1h1c0-0.1,0-0.2,0-0.2c0-0.5,0.2-1,0.7-1.5c0.4-0.4,0.9-0.8,1.7-1
		c0.4-0.1,0.6-0.2,0.8-0.2v-1.1c2.4,0,3.9,1,4.5,2.9c0.1,0.4,0.2,0.8,0.2,1.1l-2.8,2.1h-6.1c-0.6,0-1.1-0.2-1.5-0.6S196,35,196,34.3
		z M202.1,34.3h2.8v-0.2v-0.2c0-0.6-0.1-1.1-0.4-1.5c0,0.4-0.2,0.7-0.6,1c-0.3,0.2-0.7,0.4-1.1,0.6L202.1,34.3z M200.5,33.9
		c0,0.3,0.2,0.4,0.4,0.4c0.2,0,0.4-0.1,0.8-0.3s0.6-0.5,0.6-0.8c0-0.2,0-0.3-0.2-0.4c-0.1-0.1-0.3-0.1-0.5-0.1
		c-0.3,0-0.6,0.1-0.8,0.4c-0.1,0.1-0.2,0.2-0.2,0.3C200.5,33.6,200.5,33.8,200.5,33.9z M207.3,34.3h3.2c-0.5-0.2-0.9-0.3-1.3-0.5
		c-0.8-0.4-1.3-0.9-1.3-1.5s0.4-1,1.1-1h0.1h0.1h4.2v2.9l-2.8,2.1h-6.2L207.3,34.3z M211.7,30.3l-1,1l-1-1l1-1L211.7,30.3z
		 M214.4,34.3v-2.9h2.1v1.1c0.2-0.2,0.4-0.3,0.7-0.5c0.3-0.2,0.6-0.3,0.9-0.4c0.6-0.2,1.3-0.2,1.9-0.2c0.4,0,0.8,0,1.2,0.1
		c0.6,0.2,1,0.5,1.4,0.9c0.3,0.4,0.5,0.9,0.5,1.5v0.4c0,0.6-0.2,1-0.6,1.5c-0.4,0.5-0.9,0.6-1.5,0.6h-10.2l2.7-2.1H214.4z
		 M210.3,33.3c0,0.4,0.4,0.8,1,1v-1.6h-0.4C210.5,32.8,210.3,33,210.3,33.3L210.3,33.3z M216.5,34.3h4.5v-0.5c0-0.7-0.5-1-1.5-1
		c-0.5,0-1.1,0.1-1.7,0.3c-0.6,0.2-1,0.4-1.3,0.6V34.3z M225.3,35.8c-0.4,0.4-0.9,0.6-1.5,0.6v-7.2c0.6,0,1.1,0.2,1.5,0.6
		s0.6,0.9,0.6,1.5v3C225.9,34.9,225.7,35.4,225.3,35.8L225.3,35.8z M184.3,28.3c0.4,0,0.8,0.2,1.1,0.5c0.3,0.3,0.5,0.6,0.5,1h-3.7
		c-1.2,0-1-1.5-1-1.5H184.3z"/>
</g>
<g>
	<path class="st1" d="M207.9,50.7c1.8,1.2,3.8,2.4,5.8,3c0.4,0.1,0.7,0.2,1.1,0.3c0.6,0.2,1.2,0.3,1.7,0.3c0-1.2-0.2-2.6-0.7-4.3
		c-0.6-2-1.8-4.1-2.8-5.6c-1.3,0.1-2.6,0.3-3.8,0.4c-0.3,0-0.6,0.1-1,0.1c-0.1,0.6-0.1,1.2-0.1,1.8C208.1,48,208,49.4,207.9,50.7z"
		/>
	<path class="st1" d="M207.7,19.5c0.6,0.1,1.2,0.2,1.7,0.2c1.3,0.1,2.6,0.1,3.9,0.2c0.9-1.5,2-3.4,2.6-5.3c0.6-1.6,0.6-2.7,0.5-3.7
		c-0.5,0-1.1,0.1-1.7,0.2c-0.3,0.1-0.7,0.1-1.1,0.2c-2.1,0.5-4.2,1.5-6.1,2.6c0.2,1.7,0.2,3.5,0.2,5.3
		C207.7,19.3,207.7,19.4,207.7,19.5z"/>
	<path class="st1" d="M185.7,13.9c-1.8-1.2-3.8-2.4-5.8-3c-0.5-0.1-0.9-0.3-1.3-0.4c-0.6-0.1-1.1-0.2-1.5-0.3c0,1.2,0.2,2.6,0.7,4.3
		c0.6,2,1.8,4.1,2.8,5.6c1.3-0.1,2.6-0.3,3.8-0.4c0.3,0,0.6-0.1,1-0.1c0.1-0.6,0.1-1.2,0.1-1.8C185.5,16.6,185.6,15.2,185.7,13.9z"
		/>
	<path class="st1" d="M197.2,50c-0.5,0.4-1,0.8-1.5,1.2c-0.9,0.8-1.9,1.7-2.8,2.4c0.4,1.7,1,3.5,1.7,4.9c0.2,0.5,0.4,0.9,0.7,1.3
		c0.3,0.6,0.7,1.1,1,1.5c0.6-0.5,1.3-1.3,1.8-2.3c1-1.9,1.9-3.9,2.5-5.9c-0.9-0.7-1.7-1.5-2.5-2.3C197.8,50.5,197.5,50.2,197.2,50z"
		/>
	<path class="st1" d="M185.9,45.1c-0.6-0.1-1.2-0.2-1.7-0.2c-1.3-0.1-2.6-0.1-3.9-0.2c-0.2,0.3-0.3,0.6-0.5,0.9
		c-0.8,1.3-1.6,2.9-2.1,4.4c-0.6,1.6-0.6,2.7-0.5,3.7c0.8,0,1.7-0.2,2.8-0.4c2.1-0.5,4.2-1.5,6.1-2.6c-0.2-1.7-0.2-3.5-0.2-5.3
		C185.9,45.3,185.9,45.2,185.9,45.1z"/>
	<path class="st1" d="M196.4,14.6c0.5-0.4,1-0.8,1.5-1.2c0.9-0.9,1.9-1.7,2.8-2.4c-0.4-1.7-1-3.5-1.7-4.9c-0.3-0.6-0.6-1.1-0.8-1.6
		c-0.3-0.5-0.5-0.9-0.8-1.2c-0.6,0.5-1.3,1.3-1.8,2.3c-1,1.9-1.9,3.9-2.5,5.9c0.9,0.7,1.7,1.5,2.5,2.3
		C195.8,14.1,196.1,14.4,196.4,14.6z"/>
	<path class="st2" d="M195.6,19.2c-0.1,0-0.1,0-0.2,0C195.5,19.1,195.6,19.2,195.6,19.2z"/>
	<path class="st2" d="M196.4,19.2c1.1,0,2.1-0.3,3-0.6c-1.1,0.4-2.2,0.6-3.2,0.6C196.3,19.2,196.4,19.2,196.4,19.2z"/>
	<path class="st2" d="M200.1,18.4c-0.1,0-0.2,0.1-0.2,0.1C199.9,18.4,200,18.4,200.1,18.4z"/>
	<path class="st2" d="M178.5,9.4c0,0.4,0,0.8,0.1,1.1c0.4,0.1,0.9,0.2,1.3,0.4c2,0.6,4,1.8,5.8,3c0.1-1.6,0.4-3.1,0.8-4.5
		c0.2-0.6,0.4-1.3,0.7-1.9c-1.7-0.8-3.3-1.3-4.7-1.3c-0.6,0-1.1,0-1.7,0.1C179.8,7.2,178.5,8.4,178.5,9.4z"/>
	<path class="st2" d="M196.4,14.6c-0.3-0.3-0.6-0.5-0.9-0.8c-0.8-0.8-1.7-1.6-2.5-2.3c-0.5,1.4-0.9,2.9-1.4,4.2
		c-0.2,0.6-0.4,1.2-0.5,1.8c0.3,0.2,0.6,0.4,0.9,0.5c-0.5-0.3-0.9-0.6-0.9-0.6S193.5,16.7,196.4,14.6z"/>
	<path class="st3" d="M180.6,20.2c-1-1.5-2.2-3.6-2.8-5.6c-0.5-1.7-0.8-3.1-0.7-4.3c0-0.2,0-0.5,0-0.7c0.2-1.3,0.8-2.3,0.9-2.6
		c0.1-0.1,0.1-0.1,0.1-0.1s-2.9,1.1-4.4,3.5c-1.2,1.9-1.8,4.1-1.8,5.8c0,2.5,0.9,4.5,1.4,5.4c1.2-0.5,2.6-0.9,3.9-1
		C178.3,20.5,179.5,20.3,180.6,20.2z"/>
	<path class="st2" d="M199.9,3.5c-0.7,0.1-1.3,0.5-1.7,1c0.3,0.5,0.6,1,0.8,1.6c0.7,1.4,1.2,3.2,1.7,4.9c1.8-1.5,3.5-2.7,5.4-3.5
		c-0.5-1.1-1-2-1.7-2.8c-0.4-0.5-0.9-1-1.3-1.3C202.1,3.3,201.1,3.3,199.9,3.5z"/>
	<path class="st2" d="M207.7,19.5c0-0.1,0-0.2,0-0.3c0-1.8,0-3.6-0.2-5.3c-1.4,0.8-2.8,1.7-3.9,2.5c-0.5,0.4-1,0.7-1.5,1
		c0.3,0.3,1.6,1.3,3.1,1.6C206,19.2,206.8,19.4,207.7,19.5z"/>
	<path class="st2" d="M202.9,20.7c-0.8-1.5-0.9-2.9-0.9-3.3l-0.1,0.1c0.4,2.9,1.3,4.2,2.8,5.7c2,1.9,4.8,2.1,4.8,2.1s0,0-0.1-0.1
		c-0.2,0-0.4-0.1-0.6-0.1C205.7,24.4,203.8,22.5,202.9,20.7z"/>
	<path class="st2" d="M186.7,24.4c0.6-0.4,1.2-0.9,1.7-1.6c0.1-0.1,0.2-0.2,0.3-0.4c-0.2,0.2-0.4,0.5-0.6,0.7
		C187.6,23.6,187.2,24,186.7,24.4z"/>
	<path class="st2" d="M181.6,25.6c0.6,0,1.2,0,1.8-0.1c0.3-0.5,1.5-2.7,2-5.8c-0.3,0-0.6,0.1-1,0.1c-1.2,0.1-2.5,0.2-3.8,0.4
		c-1.1,0.1-2.3,0.3-3.4,0.4c-1.3,0.1-2.8,0.5-3.9,1c-0.4,0.2-0.8,0.4-1.2,0.6c-2.9,1.7-4,3.7-4,3.7s1.3-0.7,3.4-0.7
		C174.4,25.2,178.1,25.6,181.6,25.6z"/>
	<path class="st3" d="M197.9,13.4c-0.5,0.5-1,0.8-1.5,1.2c-2.9,2.1-5.3,2.8-5.3,2.8s0.3,0.3,0.9,0.6c0.7,0.4,2,1,3.5,1.2
		c0.1,0,0.1,0,0.2,0c0.1,0,0.2,0,0.3,0s0.2,0,0.4,0c1,0,2-0.2,3.2-0.6c0.1,0,0.3-0.1,0.4-0.1c0.1,0,0.2-0.1,0.2-0.1
		c0.6-0.2,1.2-0.5,1.8-0.9l0.1-0.1c0-0.1,0-0.1,0-0.1s0,0,0.1,0.1c0.5-0.3,1-0.6,1.5-1c1.1-0.8,2.5-1.7,3.9-2.5
		c1.9-1.1,4-2.1,6.1-2.6c0.4-0.1,0.7-0.2,1.1-0.2c-0.2-1.2-0.6-2.5-1.4-3.3c-0.6-0.6-1.2-1-1.9-1.4c-0.1,0-0.3,0-0.4,0
		c-1.7,0-3.4,0.4-5,1.1c-1.8,0.8-3.6,2-5.4,3.5C199.8,11.7,198.8,12.5,197.9,13.4z"/>
	<path class="st3" d="M219.4,11.2c0,0-0.1-0.2-0.4-0.6C219.1,10.8,219.2,11,219.4,11.2L219.4,11.2z"/>
	<path class="st2" d="M216.3,10.2c0,0.2,0.1,0.5,0.1,0.7c0.1,1,0.1,2.1-0.5,3.7c-0.6,1.8-1.7,3.8-2.6,5.3c1.1,0.1,2.2,0.2,3.3,0.4
		c1,0.2,2,0.5,3,0.9c0.6-1.1,1.3-3.1,1.2-5.4c0-1.5-0.3-2.9-1.4-4.6c-0.1-0.2-0.2-0.4-0.4-0.6l-0.1-0.1c-1.3-2-3.3-2.9-3.5-3h-0.1
		C215.3,7.5,216.1,8.6,216.3,10.2z"/>
	<path class="st3" d="M213.3,19.9c-1.3-0.1-2.6-0.1-3.9-0.2c-0.5,0-1.1-0.1-1.7-0.2c-0.9-0.1-1.7-0.3-2.5-0.5
		c-1.6-0.3-2.8-1.4-3.1-1.6l-0.1-0.1c0,0,0,0,0,0.1c0,0.4,0.1,1.8,0.9,3.3c0.9,1.8,2.8,3.7,5.9,4.4c0.2,0,0.4,0.1,0.6,0.1
		c1.2,0.2,2.6,0.5,3.9,0.5c3.2,0,6.6-0.2,9-0.2c2,0,3.2,1,3.2,1s-1.1-2.6-3.8-4.3c-0.7-0.4-1.4-0.7-2.1-1c-1-0.4-2-0.7-3-0.9
		C215.5,20.1,214.4,19.9,213.3,19.9z"/>
	<path class="st3" d="M185.7,13.9c-0.1,1.3-0.2,2.6-0.2,4c0,0.6-0.1,1.2-0.1,1.8c-0.4,3.1-1.7,5.3-2,5.8c0,0.1-0.1,0.1-0.1,0.1
		s1.3,0,2.7-0.7c0.2-0.1,0.5-0.3,0.7-0.5c0.5-0.4,0.9-0.8,1.4-1.3c0.2-0.2,0.4-0.4,0.6-0.7c1-1.3,1.8-3,2.4-5
		c0.2-0.6,0.4-1.1,0.5-1.8c0.4-1.4,0.9-2.8,1.4-4.2c0.7-2,1.5-4,2.5-5.9c0.6-1.1,1.2-1.8,1.8-2.3c1.7-1.5,3.2-1.4,3.2-1.4
		s-2.1-1-4.8-0.8c-1.7,0.1-3.6,0.7-5.5,2.4c-1.2,1-2.2,2.4-3,4c-0.3,0.6-0.5,1.2-0.7,1.9C186.1,10.8,185.9,12.3,185.7,13.9z"/>
	<path class="st2" d="M214.4,56c0.3-0.7,0.4-1.4,0.4-2c-0.4-0.1-0.7-0.2-1.1-0.3c-2-0.6-4-1.8-5.8-3c-0.1,1.6-0.4,3.1-0.8,4.5
		c-0.2,0.6-0.4,1.3-0.7,1.9c1.7,0.8,3.3,1.3,4.7,1.3c0.5,0,0.9,0,1.3-0.1C213.3,57.6,214.1,56.7,214.4,56z"/>
	<path class="st2" d="M197.2,45.4c-1.1,0-2.1,0.3-3,0.6c1.1-0.4,2.2-0.6,3.2-0.6C197.3,45.4,197.2,45.4,197.2,45.4z"/>
	<path class="st2" d="M197.2,50c0.3,0.3,0.6,0.5,0.9,0.8c0.8,0.8,1.7,1.6,2.5,2.3c0.5-1.4,0.9-2.9,1.4-4.2c0.2-0.6,0.4-1.2,0.5-1.8
		c-1.4-0.8-2.6-1.4-3.8-1.6c2.2,0.4,3.7,1.7,3.7,1.7S200.1,47.9,197.2,50z"/>
	<path class="st2" d="M198,45.4c0.1,0,0.2,0,0.3,0C198.2,45.5,198.1,45.4,198,45.4z"/>
	<path class="st2" d="M193.5,46.2c0.1,0,0.2-0.1,0.2-0.1C193.7,46.2,193.6,46.2,193.5,46.2z"/>
	<path class="st3" d="M213,44.4c1,1.5,2.2,3.6,2.8,5.6c0.5,1.7,0.8,3.1,0.7,4.3c0,0.2,0,0.5,0,0.7c-0.2,1.3-0.8,2.3-0.9,2.6
		c0,0.1-0.1,0.1-0.1,0.1s2.9-1.1,4.4-3.5c1.2-1.9,1.8-4.1,1.8-5.8c0-2.5-0.9-4.5-1.4-5.4c-1.2,0.5-2.6,0.9-3.9,1
		C215.3,44.1,214.1,44.3,213,44.4z"/>
	<path class="st2" d="M190.7,43.9c0.8,1.5,0.9,2.9,0.9,3.3l0.1-0.1c-0.4-2.9-1.3-4.2-2.8-5.7c-2-1.9-4.8-2.1-4.8-2.1s0,0,0.1,0.1
		c0.2,0,0.4,0.1,0.6,0.1C187.9,40.2,189.8,42.1,190.7,43.9z"/>
	<path class="st2" d="M195.3,59.8c-0.2-0.4-0.5-0.9-0.7-1.3c-0.7-1.4-1.2-3.2-1.7-4.9c-1.8,1.5-3.5,2.7-5.3,3.5c0.5,1,1,2,1.7,2.8
		c0.7,0.9,1.5,1.5,2.2,2c0.9-0.2,1.9-0.5,2.4-0.9C194.4,60.6,194.9,60.2,195.3,59.8z"/>
	<path class="st2" d="M185.9,45.1c0,0.1,0,0.2,0,0.3c0,1.8,0,3.6,0.2,5.3c1.4-0.8,2.8-1.7,3.9-2.5c0.5-0.4,1-0.7,1.5-1
		c-0.3-0.3-1.6-1.3-3.1-1.6C187.6,45.4,186.8,45.2,185.9,45.1z"/>
	<path class="st2" d="M212,39c-0.6,0-1.2,0-1.8,0.1c-0.3,0.5-1.6,2.7-2,5.8c0.3,0,0.6-0.1,1-0.1c1.2-0.1,2.5-0.2,3.8-0.4
		c1.1-0.1,2.3-0.3,3.4-0.4c1.3-0.1,2.8-0.5,3.9-1c0.4-0.2,0.8-0.4,1.2-0.6c2.8-1.7,4-3.7,4-3.7s-1.3,0.7-3.4,0.7
		C219.2,39.4,215.5,39,212,39z"/>
	<path class="st2" d="M206.9,40.2c-0.6,0.4-1.2,0.9-1.7,1.6c-0.1,0.1-0.2,0.2-0.3,0.4c0.2-0.2,0.4-0.5,0.6-0.7
		C206,41,206.4,40.6,206.9,40.2z"/>
	<path class="st3" d="M195.7,51.2c0.5-0.5,1-0.8,1.5-1.2c2.9-2.1,5.3-2.8,5.3-2.8s-1.5-1.2-3.7-1.7c-0.1,0-0.3,0-0.5-0.1
		c-0.1,0-0.2,0-0.3,0s-0.2,0-0.3,0s-0.2,0-0.4,0c-1,0-2,0.2-3.2,0.6c-0.1,0-0.3,0.1-0.4,0.1s-0.2,0.1-0.2,0.1
		c-0.6,0.2-1.2,0.5-1.8,0.9l-0.1,0.1c0,0.1,0,0.1,0,0.1s0,0-0.1-0.1c-0.5,0.3-1,0.6-1.5,1c-1.1,0.8-2.5,1.7-3.9,2.5
		c-1.9,1.1-4,2.1-6.1,2.6c-1.1,0.3-2,0.4-2.8,0.4c0,0.2,0.1,0.4,0.1,0.7c0.2,1.6,1,2.7,1,2.7s-0.4-0.2-1-0.5
		c1.4,0.9,3.2,1.7,5.3,1.7c1.7,0,3.4-0.4,5-1.2c1.8-0.8,3.6-2.1,5.3-3.5C193.8,52.9,194.8,52,195.7,51.2z"/>
	<path class="st3" d="M174.3,53.5c-0.1,0-0.1,0-0.1,0s0.3,0.5,0.9,1.2c-0.1-0.2-0.3-0.4-0.4-0.6C174.6,53.9,174.4,53.7,174.3,53.5z"
		/>
	<path class="st2" d="M177.3,54.4c0-0.2-0.1-0.4-0.1-0.7c-0.1-1-0.1-2.1,0.5-3.7c0.5-1.5,1.3-3.1,2.1-4.4c-1,0-2.1,0-3,0
		c-1,0-2.3-0.4-3.3-0.9c-0.4,1.1-0.7,2.5-0.7,4.1c0,1.5,0.3,2.9,1.5,4.7c0.1,0.2,0.2,0.4,0.4,0.6c0.1,0.2,0.3,0.4,0.4,0.6
		c0.7,0.9,1.5,1.5,2.1,1.9s1,0.5,1,0.5S177.5,56,177.3,54.4z"/>
	<path class="st3" d="M180.3,44.7c1.3,0.1,2.6,0.1,3.9,0.2c0.5,0,1.1,0.1,1.7,0.2c0.9,0.1,1.7,0.3,2.5,0.5c1.6,0.3,2.8,1.4,3.1,1.6
		l0.1,0.1c0,0,0,0,0-0.1c0-0.4-0.1-1.8-0.9-3.3c-0.9-1.8-2.8-3.7-5.9-4.4c-0.2,0-0.4-0.1-0.6-0.1c-1.2-0.2-2.6-0.5-3.9-0.5
		c-3.2,0-6.6,0.2-9,0.2c-2,0-3.2-1-3.2-1s1,2.5,3.8,4.3c0.7,0.4,1.4,0.7,2.1,1c1,0.4,1.9,0.7,3,0.9
		C178.1,44.5,179.2,44.7,180.3,44.7z"/>
	<path class="st3" d="M207.9,50.7c0.1-1.3,0.2-2.6,0.2-4c0-0.6,0.1-1.2,0.1-1.8c0.4-3.1,1.7-5.3,2-5.8c0-0.1,0.1-0.1,0.1-0.1
		s-1.3,0-2.7,0.7c-0.2,0.1-0.5,0.3-0.7,0.5c-0.5,0.4-0.9,0.8-1.4,1.3c-0.2,0.2-0.4,0.4-0.6,0.7c-1,1.3-1.8,3-2.4,5
		c-0.2,0.6-0.4,1.1-0.5,1.8c-0.4,1.4-0.9,2.8-1.4,4.2c-0.7,2-1.5,4-2.5,5.9c-0.6,1.1-1.2,1.8-1.8,2.3c-1.7,1.5-3.2,1.4-3.2,1.4
		s0.9,0.5,2.3,0.7c2,0.4,5,0.4,7.9-2.1c1.2-1,2.3-2.5,3.1-4.2c0.3-0.6,0.5-1.2,0.7-1.9C207.5,53.8,207.7,52.3,207.9,50.7z"/>
</g>
<g>
	<path class="st0" d="M21.4,24.9c-0.1-0.2-0.1-0.4-0.1-0.6c0-1.2,0.6-2.4,1.8-3.8c0.9-1.1,2.3-1.9,4.1-2.4c0.9-0.3,1.6-0.4,2.1-0.4
		V15c6,0,9.7,2.4,11.2,7.3c0.3,1,0.5,1.9,0.5,2.7c0,1.4-0.5,2.7-1.6,3.7c-1,1-2.3,1.5-3.7,1.5H21H8.3l11.3-5.3H21.4z M7.5,30.2
		c-1.5,0-2.8-0.4-3.9-1.2c-1.1-0.8-1.8-1.9-2.2-3.4c-0.2-0.9-0.3-1.9-0.3-2.9c0-1.6,0.3-3.3,0.8-4.9s1.3-3,2.4-4.1h5.1
		c-2.1,2.1-3.1,4.5-3.1,7.2c0,1.7,0.5,3,1.4,4h6.2v-10h5.3v9.9L7.5,30.2z M12.6,20.2l-2.5,2.6l-2.6-2.6l2.6-2.6L12.6,20.2z
		 M28.9,24.9h6.9l0.1-0.6v-0.6c0-1.4-0.3-2.7-0.9-3.6c0,0.9-0.5,1.8-1.5,2.6c-0.8,0.6-1.7,1.1-2.8,1.6L28.9,24.9z M25,23.8
		c0,0.7,0.4,1.1,1.1,1.1c0.5,0,1.1-0.2,1.9-0.7c0.9-0.5,1.4-1.2,1.4-1.9c0-0.4-0.1-0.7-0.4-1c-0.3-0.2-0.7-0.3-1.3-0.3
		c-0.7,0-1.4,0.3-1.9,1c-0.2,0.2-0.4,0.5-0.6,0.8S25,23.5,25,23.8z M48.1,24.9c0,1.4-0.5,2.6-1.5,3.7c-1,1-2.3,1.6-3.7,1.6V14.7h5.2
		V24.9z M71.7,25c0,1.4-0.5,2.6-1.6,3.7c-0.5,0.5-1,0.9-1.7,1.1c-0.6,0.3-1.3,0.4-2,0.4h-6.2c-1.5,0-2.8-0.4-3.9-1.2
		c-1.1-0.8-1.8-1.9-2.2-3.4c-0.2-0.9-0.4-1.9-0.4-2.9c0-1.6,0.3-3.3,0.8-4.9s1.3-3,2.4-4.1h5.2C60,15.8,59,18.2,59,20.9
		c0,1.7,0.5,3,1.4,4h6.2v-10h5.3V25H71.7z M65.4,20.2l-2.6,2.6l-2.6-2.6l2.6-2.6L65.4,20.2z M73.3,24.9V12.2h5.3v12.7H81
		c-0.1-0.2-0.1-0.4-0.1-0.6c0-1.2,0.6-2.4,1.8-3.8c0.9-1.1,2.3-1.9,4.1-2.4c0.9-0.3,1.6-0.4,2.1-0.4V15c6,0,9.7,2.4,11.2,7.3
		c0.3,1,0.5,1.9,0.5,2.7l-6.9,5.3H78.6c-1.4,0-2.7-0.5-3.7-1.5C73.8,27.6,73.3,26.4,73.3,24.9z M88.5,24.9h6.9l0.1-0.6v-0.6
		c0-1.4-0.3-2.7-0.9-3.6c0,0.9-0.5,1.8-1.5,2.6c-0.8,0.6-1.7,1.1-2.8,1.6L88.5,24.9z M84.5,23.8c0,0.7,0.4,1.1,1.1,1.1
		c0.5,0,1.1-0.2,1.9-0.7c0.9-0.5,1.4-1.2,1.4-1.9c0-0.4-0.1-0.7-0.4-1c-0.3-0.2-0.7-0.3-1.3-0.3c-0.7,0-1.4,0.3-1.9,1
		c-0.3,0.3-0.4,0.5-0.6,0.8C84.6,23.1,84.5,23.5,84.5,23.8z M101.3,24.9h7.9c-1.2-0.4-2.2-0.8-3.1-1.2c-2-1.1-3.1-2.3-3.1-3.6
		c0-1.6,0.9-2.5,2.7-2.5h0.2h0.3h10.4v7.3l-6.9,5.3l-15.3,0.1L101.3,24.9z M112.4,14.8l-2.6,2.6l-2.6-2.6l2.6-2.6L112.4,14.8z
		 M119,24.9v-7.3h5.3v2.7c0.5-0.4,1.1-0.8,1.8-1.2c0.7-0.4,1.5-0.7,2.3-0.9c1.5-0.4,3.1-0.6,4.7-0.6c1.1,0,2,0.1,2.9,0.3
		c1.4,0.4,2.6,1.2,3.5,2.3c0.8,1.1,1.2,2.3,1.2,3.8v0.9c0,1.4-0.5,2.6-1.6,3.7s-2.3,1.6-3.7,1.6h-25.2l6.8-5.3H119z M108.7,22.3
		c0,1.1,0.9,1.9,2.6,2.6V21h-0.9C109.3,21.1,108.7,21.5,108.7,22.3L108.7,22.3z M124.2,24.9h11.1v-1.3c0-1.7-1.2-2.5-3.7-2.5
		c-1.3,0-2.7,0.2-4.2,0.7c-1.5,0.5-2.5,1-3.2,1.5L124.2,24.9z M146.1,28.6c-1,1-2.3,1.6-3.7,1.6V12.3c1.4,0,2.7,0.5,3.7,1.6
		c1,1,1.5,2.3,1.5,3.7V25C147.6,26.3,147.1,27.6,146.1,28.6L146.1,28.6z M44.3,9.8c1.1,0,2,0.4,2.8,1.2s1.2,1.5,1.2,2.6h-9.2
		c-3,0-2.5-3.8-2.5-3.8L44.3,9.8z"/>
</g>
<g>
	
		<rect x="33.5" y="46.2" transform="matrix(0.7071 -0.7071 0.7071 0.7071 -23.2035 38.0262)" class="st4" width="1.7" height="1.7"/>
	<path class="st4" d="M36.1,49.2c0.3,0.8,0.4,1.5,0.4,2.1c0,1.2-0.4,1.8-1.2,1.8s-1.2-0.4-1.3-1.3l-0.1-1.9l-1.4,0.2v0.5
		c0,0.3,0,0.6,0,0.8s0,0.4,0,0.6c-0.2,0.8-0.8,1.2-1.7,1c-0.7-0.1-1.3-0.6-1.4-1.5l-0.1-1.9l-1.4,0.2v0.5c0,0.3,0,0.6,0,0.8
		s0,0.4,0,0.6c-0.1,0.8-0.8,1.2-1.9,1.2h-0.3h-0.2h-2.2h-0.1H21h-0.2h-2.2h-0.1h-2.3h-0.1c-0.6,0-1.1-0.5-1.3-1.5
		c-0.2-0.7-0.4-1.3-0.8-1.8c-0.5-0.7-1.2-1-2.1-1c-1.1,0-2.1,0.8-2.8,2.4c-0.2,0.4-0.4,0.8-0.6,1.1c-0.4,0.5-0.8,0.8-1.3,0.8H7.1
		H4.7h0H4.6c-1.2,0-1.8-0.8-1.8-2.2v-8.2H1.4v8.3c0,2.4,1.1,3.6,3.2,3.6h0.1h0.1h2.3h0.1c0.9,0,1.7-0.4,2.3-1.2
		c0.9,0.9,1.9,1.4,2.9,1.4s1.7-0.4,2.2-1.1c0.3,0.6,0.9,0.9,1.5,0.9h0.1h2.3h0.1h2.2H21h2.2h0.1h2.2h0.2H26c1.4,0,2.3-0.4,2.7-1.2
		c0.4,0.8,1.1,1.2,2.3,1.2c1,0,1.7-0.4,2.3-1.2c0.3,0.8,1,1.2,2,1.2c0.6,0,1.2-0.1,1.6-0.5c0.7-0.5,1-1.5,1-2.7
		c0-0.7-0.1-1.5-0.4-2.4L36.1,49.2z M12.3,53.1c-0.7,0-1.3-0.4-2-1.2c0.4-1.1,1-1.7,1.7-1.7c0.6,0,1,0.3,1.3,0.9
		c0.1,0.3,0.2,0.6,0.2,0.9C13.5,52.7,13.1,53.1,12.3,53.1z"/>
	
		<rect x="30.9" y="46.2" transform="matrix(0.7071 -0.7071 0.7071 0.7071 -23.9653 36.1892)" class="st4" width="1.7" height="1.7"/>
	
		<rect x="32.2" y="43.9" transform="matrix(0.7071 -0.7071 0.7071 0.7071 -21.9579 36.4334)" class="st4" width="1.7" height="1.7"/>
	<path class="st4" d="M46.6,46.5l-0.8,1.3c2.3,1.5,3.4,2.8,3.4,3.9c0,1-1,1.5-3,1.5c-0.6,0-1.3-0.1-2-0.2v1.4
		c0.6,0.1,1.3,0.2,2.1,0.2c2.9,0,4.4-1,4.4-3C50.7,49.8,49.3,48.1,46.6,46.5z"/>
	<rect x="82.3" y="45.9" transform="matrix(0.7071 -0.7071 0.7071 0.7071 -8.6982 72.4452)" class="st4" width="1.7" height="1.7"/>
	<rect x="79.7" y="45.9" transform="matrix(0.7071 -0.7071 0.7071 0.7071 -9.4597 70.6067)" class="st4" width="1.7" height="1.7"/>
	<path class="st4" d="M91.9,52.7c-0.9-0.4-1.3-1-1.3-1.7c0-0.3,0-0.6,0.1-0.8c0.1-0.2,0.2-0.4,0.4-0.6c0.2-0.1,0.4-0.3,0.7-0.4
		c0.2-0.1,0.5-0.1,0.9-0.1c0.6,0,1.3,0.2,2,0.8l0.7-1.4c-0.7-0.7-1.7-1.1-2.8-1.1c-0.7,0-1.3,0.1-1.8,0.4c-0.4,0.2-0.7,0.5-1,0.8
		c-0.5,0.6-0.7,1.4-0.7,2.3c0,0.7,0.2,1.2,0.5,1.7c0.1,0.2,0.3,0.4,0.4,0.5h-0.1h-2.2h-2.4h-0.1c-1,0-1.5-0.6-1.6-1.6l-0.1-1.9
		l-1.3,0.2v0.7c0,0.3,0,0.5,0,0.8c0,0.3,0,0.5,0,0.7c-0.1,0.7-0.8,1.1-2.1,1.1h-0.9c0,0,0,0-0.1,0h-2h-0.2h-0.1
		c-0.6,0-1.1-0.5-1.3-1.5c-0.2-0.7-0.4-1.3-0.8-1.8c-0.5-0.7-1.2-1-2.1-1c-1.1,0-2.1,0.8-2.8,2.4c-0.2,0.4-0.4,0.8-0.6,1.1
		c-0.4,0.5-0.8,0.8-1.3,0.8h-0.1h-2.1h-0.2h-2.2h-0.1h-2.3h-0.1h-2.2h-0.2h-2.3h0H56c-1.2,0-1.8-0.8-1.8-2.2v-8.2h-1.4V51
		c0,2.4,1.1,3.6,3.2,3.6h0.1h0.1h2.2h0.2h2.2h0.1h2.3h0.1h2.2h0.2h2.1H68c0.9,0,1.6-0.4,2.3-1.2c0.9,0.9,1.9,1.4,2.9,1.4
		s1.7-0.4,2.3-1.1c0.2,0.5,0.7,0.8,1.1,0.9c0.1,0,0.2,0,0.3,0H77h0.1h2.3c0,0,0,0,0,0h0.7c1.4,0,2.3-0.4,2.9-1.2
		c0.4,0.8,1.1,1.2,2.2,1.2h0.1h2.4h0.8c2.2,0,4.6-0.4,7.2-1.2v-1.5l-3.6,0.9C92.1,52.8,92,52.8,91.9,52.7z M73.1,53.3
		c-0.7,0-1.3-0.4-2-1.2c0.4-1.1,1-1.7,1.7-1.7c0.6,0,1,0.3,1.3,0.9c0.1,0.3,0.2,0.6,0.2,0.9C74.3,52.9,73.9,53.3,73.1,53.3z"/>
	<rect x="97.7" y="42.9" class="st4" width="1.4" height="11.8"/>
	<rect x="113.4" y="44.1" transform="matrix(0.7071 -0.7071 0.7071 0.7071 1.6836 93.909)" class="st4" width="1.7" height="1.7"/>
	
		<rect x="128.2" y="42.7" transform="matrix(0.7071 -0.7071 0.7071 0.7071 7.0099 103.9672)" class="st4" width="1.7" height="1.7"/>
	<path class="st4" d="M130.4,46.3c-0.3-0.2-0.7-0.3-1.2-0.3c-0.7,0-1.3,0.2-1.7,0.7c-0.4,0.5-0.7,1.1-0.9,2
		c-0.1,0.2-0.1,0.5-0.1,0.7c0,1.5,0.9,2.2,2.7,2.2c0.6,0,1.1,0,1.7-0.2v0.1c0,1.1-1.1,1.6-3.2,1.6h-2.1h-0.1h-2.2h-0.2h-2.2h-0.1
		h-2.1h-0.2c-1,0-1.5-0.1-1.6-0.2c0.4-0.6,0.6-1.3,0.6-2s-0.2-1.2-0.5-1.7c-0.6-0.9-1.5-1.3-2.7-1.3c-1.3,0-2.4,0.7-3.6,2.2v-7.3
		h-1.4v9.4c0,0-0.2,0.3-0.6,0.9h-1.3h-0.1h-2.4c-0.4,0-0.6,0.2-0.6,0.6v0.2c0,0.5,0.2,0.7,0.6,0.7h2.4h0.1h4c1.8,0,3.1-0.2,4.2-0.7
		c0.5,0.5,1.4,0.7,2.8,0.7c0,0,0,0,0,0h0.1h0.2h2.1h0.1h2.2h0.2h2.2h0.1h2c1.7,0,2.8-0.2,3.5-0.7c0.7-0.6,1.1-1.6,1.1-3.2
		c0-0.3-0.1-0.6-0.1-1C131.9,48,131.3,46.9,130.4,46.3z M129.4,50.2c-1,0-1.5-0.3-1.5-1c0-0.2,0.8-1.7,1.4-1.7
		c0.4,0,0.8,0.3,1.1,0.9c0.2,0.4,0.3,1,0.4,1.6C130.3,50.1,129.9,50.2,129.4,50.2z M114.7,52.6c-0.7,0.3-1.8,0.5-3.3,0.5h-1.2
		c1.5-2.4,2.9-3.6,4-3.6c0.3,0,0.5,0,0.7,0.1c0.2,0.1,0.3,0.2,0.5,0.3c0.3,0.3,0.5,0.6,0.5,1.1C115.9,51.7,115.5,52.3,114.7,52.6z"
		/>
	<path class="st4" d="M143.8,48.8c-1-0.5-1.8-0.7-2.5-0.7c-1.2,0-2.2,0.6-2.9,1.7l-0.1,0.2l1.3,0.6l0.2-0.3c0.4-0.5,0.9-0.8,1.5-0.8
		c0.4,0,1.1,0.2,2.2,0.6c1.1,0.4,1.7,0.7,1.8,0.7l-0.6,0.3c-2.7,1.4-4.9,2.1-6.7,2.1h-0.5h-0.1c-1.2,0-1.8-0.7-1.8-2.1v-8.2h-1.4
		v8.3c0,2.4,1.1,3.6,3.2,3.6h0.1h0.1h0.3c1.9,0,4-0.7,6.4-1.9c1.7-0.9,2.9-1.3,3.5-1.4v-1.4C146.8,50.1,145.5,49.6,143.8,48.8z"/>
</g>
</svg>
